<svg width="166" height="40" viewBox="0 0 166 40" fill="none" xmlns="http://www.w3.org/2000/svg">
<g clip-path="url(#clip0_807_519)">
<path d="M23.7716 16.8308H16.6807C16.2379 16.8308 15.8789 17.192 15.8789 17.6377C15.8789 18.0833 16.2379 18.4445 16.6807 18.4445H23.7716C24.2144 18.4445 24.5734 18.0833 24.5734 17.6377C24.5734 17.192 24.2144 16.8308 23.7716 16.8308Z" fill="#2670F6"/>
<path d="M23.7716 21.5579H16.6807C16.2379 21.5579 15.8789 21.9191 15.8789 22.3647C15.8789 22.8103 16.2379 23.1716 16.6807 23.1716H23.7716C24.2144 23.1716 24.5734 22.8103 24.5734 22.3647C24.5734 21.9191 24.2144 21.5579 23.7716 21.5579Z" fill="#2670F6"/>
<path d="M26.0104 25.8001C25.9845 25.831 25.9562 25.8595 25.9279 25.8856C25.6991 26.0971 24.6592 27.0216 23.94 27.0216H14.913C14.8681 27.0216 14.821 27.024 14.7762 27.0311C14.3918 27.0763 12.3473 27.169 12.3473 24.127V15.8779C12.3473 12.8359 14.3942 12.931 14.7762 12.9737C14.821 12.9785 14.8658 12.9833 14.913 12.9833H23.94C24.6616 12.9833 25.6991 13.9077 25.9279 14.1193C25.9585 14.1478 25.9845 14.1739 26.0104 14.2048L29.5783 18.2497C29.866 18.5753 30.2999 18.7227 30.7244 18.6371L38.7161 17.0305C39.2845 16.9165 39.6924 16.4126 39.6924 15.8304V14.7585C39.6924 12.8145 38.926 10.9489 37.5606 9.57288L30.1961 2.15086C28.8308 0.774826 26.982 0.00244141 25.0506 0.00244141H14.637C12.7081 0.00244141 10.8569 0.774826 9.49156 2.15086L2.12705 9.57288C0.7664 10.9442 0 12.8074 0 14.7538V25.2487C0 27.1927 0.766399 29.0584 2.13177 30.4344L9.49628 37.8564C10.8616 39.2324 12.7104 40.0048 14.6418 40.0048H25.0554C26.9843 40.0048 28.8355 39.2324 30.2009 37.8564L37.5654 30.4344C38.9307 29.0584 39.6971 27.1951 39.6971 25.2487V24.3052C39.6971 23.7277 39.2962 23.2286 38.7374 23.1074L30.7385 21.3797C30.3117 21.287 29.866 21.4343 29.5759 21.7623L26.0175 25.7977L26.0104 25.8001Z" fill="#2670F6"/>
<path d="M57.6809 31.2946C56.075 31.2946 54.5847 31.0284 53.2075 30.5008C51.8303 29.9709 50.6371 29.2175 49.6255 28.2384C48.6138 27.2592 47.8262 26.1113 47.2626 24.7923C46.6966 23.4733 46.416 22.026 46.416 20.448C46.416 18.8699 46.699 17.4226 47.2626 16.1036C47.8285 14.7846 48.6209 13.6367 49.6396 12.6576C50.6607 11.6784 51.8586 10.9251 53.2358 10.3951C54.613 9.86512 56.1057 9.60132 57.7092 9.60132C59.5132 9.60132 61.1474 9.91502 62.6142 10.5448C64.0809 11.1746 65.3095 12.0991 66.3 13.3159L63.1778 16.1915C62.4845 15.3716 61.6968 14.7537 60.8149 14.3331C59.9329 13.9148 58.9755 13.7033 57.945 13.7033C56.9735 13.7033 56.0821 13.8673 55.2685 14.1976C54.455 14.5279 53.7522 14.9914 53.158 15.5903C52.5637 16.1892 52.1015 16.8998 51.7761 17.7173C51.4483 18.5372 51.2856 19.4451 51.2856 20.4432C51.2856 21.4414 51.4483 22.3516 51.7761 23.1691C52.1039 23.9891 52.5637 24.6973 53.158 25.2962C53.7522 25.8951 54.455 26.3609 55.2685 26.6888C56.0797 27.0192 56.9735 27.1832 57.945 27.1832C58.9755 27.1832 59.9306 26.9693 60.8149 26.5391C61.6968 26.109 62.4845 25.4863 63.1778 24.6664L66.3 27.542C65.3095 28.7612 64.0809 29.6881 62.6142 30.3274C61.1474 30.9667 59.5038 31.2851 57.6785 31.2851L57.6809 31.2946Z" fill="#2670F6"/>
<path d="M75.5183 31.1758C74.1695 31.1758 72.981 30.9168 71.9504 30.3963C70.9199 29.8782 70.1182 29.0773 69.5428 28.0008C68.9674 26.9218 68.6797 25.5648 68.6797 23.9273V14.8203H73.3182V23.2096C73.3182 24.569 73.6012 25.5624 74.1648 26.1898C74.7307 26.8196 75.5278 27.1333 76.5583 27.1333C77.2728 27.1333 77.9048 26.9741 78.4613 26.6532C79.0155 26.3348 79.4564 25.8547 79.7842 25.2154C80.112 24.5761 80.2747 23.7776 80.2747 22.8198V14.8203H84.8826V30.9382H80.4822V26.475L81.284 27.794C80.7298 28.9134 79.9351 29.757 78.907 30.325C77.8765 30.893 76.7469 31.1782 75.5183 31.1782V31.1758Z" fill="#2670F6"/>
<path d="M88.248 30.9357V8.70532H92.8865V30.9357H88.248Z" fill="#2670F6"/>
<path d="M101.566 30.9357L94.8477 14.8179H99.6041L105.193 28.6899H102.816L108.643 14.8179H113.071L106.322 30.9357H101.566Z" fill="#2670F6"/>
<path d="M119.372 31.1758C118.143 31.1758 117.082 30.9619 116.191 30.5318C115.3 30.1016 114.611 29.5194 114.125 28.7802C113.639 28.0411 113.396 27.2117 113.396 26.2944C113.396 25.377 113.63 24.5214 114.094 23.7918C114.559 23.0622 115.3 22.499 116.309 22.0997C117.32 21.7005 118.648 21.5008 120.292 21.5008H124.513V24.1982H120.768C119.679 24.1982 118.929 24.3788 118.523 24.7377C118.118 25.0966 117.915 25.5457 117.915 26.0852C117.915 26.6841 118.148 27.1594 118.613 27.5088C119.077 27.8581 119.707 28.034 120.499 28.034C121.292 28.034 122.001 27.8534 122.624 27.4945C123.249 27.1357 123.69 26.5867 123.947 25.8476L124.661 28.034C124.324 29.0322 123.711 29.8069 122.817 30.3559C121.926 30.9049 120.775 31.1806 119.37 31.1806L119.372 31.1758ZM124.246 30.9358V27.7892L123.949 27.1V21.4675C123.949 20.4694 123.647 19.6899 123.044 19.1314C122.438 18.5729 121.513 18.2925 120.263 18.2925C119.412 18.2925 118.573 18.4279 117.752 18.6965C116.929 18.965 116.222 19.331 115.627 19.7897L113.993 16.5243C114.866 15.885 115.915 15.4002 117.144 15.0722C118.372 14.7419 119.62 14.5779 120.888 14.5779C123.327 14.5779 125.218 15.1578 126.567 16.3152C127.913 17.4749 128.588 19.2811 128.588 21.7385V30.9358H124.246Z" fill="#2670F6"/>
<path d="M141.084 14.5779C142.353 14.5779 143.487 14.8322 144.487 15.3408C145.487 15.8493 146.274 16.6289 146.85 17.6769C147.425 18.725 147.713 20.0677 147.713 21.7076V30.9358H143.074V22.4277C143.074 21.1301 142.791 20.1699 142.228 19.552C141.662 18.9341 140.865 18.6228 139.834 18.6228C139.101 18.6228 138.44 18.782 137.858 19.1029C137.273 19.4237 136.818 19.8919 136.49 20.5098C136.163 21.1301 136 21.9476 136 22.9672V30.9358H131.361V14.8179H135.79V19.2811L134.958 17.9336C135.533 16.8546 136.354 16.0276 137.424 15.4477C138.495 14.8678 139.714 14.5779 141.079 14.5779H141.084Z" fill="#2670F6"/>
<path d="M156.603 31.1758C155.374 31.1758 154.313 30.9619 153.421 30.5318C152.53 30.1016 151.841 29.5194 151.356 28.7802C150.87 28.0411 150.627 27.2117 150.627 26.2944C150.627 25.377 150.86 24.5214 151.325 23.7918C151.79 23.0622 152.53 22.499 153.539 22.0997C154.551 21.7005 155.879 21.5008 157.522 21.5008H161.743V24.1982H157.999C156.909 24.1982 156.159 24.3788 155.754 24.7377C155.348 25.0966 155.145 25.5457 155.145 26.0852C155.145 26.6841 155.379 27.1594 155.843 27.5088C156.308 27.8581 156.937 28.034 157.73 28.034C158.522 28.034 159.232 27.8534 159.854 27.4945C160.479 27.1357 160.92 26.5867 161.177 25.8476L161.892 28.034C161.555 29.0322 160.942 29.8069 160.048 30.3559C159.156 30.9049 158.006 31.1806 156.6 31.1806L156.603 31.1758ZM161.479 30.9358V27.7892L161.182 27.1V21.4675C161.182 20.4694 160.88 19.6899 160.277 19.1314C159.67 18.5729 158.746 18.2925 157.496 18.2925C156.645 18.2925 155.805 18.4279 154.985 18.6965C154.162 18.965 153.454 19.331 152.86 19.7897L151.226 16.5243C152.098 15.885 153.148 15.4002 154.376 15.0722C155.605 14.7419 156.852 14.5779 158.121 14.5779C160.559 14.5779 162.451 15.1578 163.8 16.3152C165.146 17.4749 165.821 19.2811 165.821 21.7385V30.9358H161.479Z" fill="#2670F6"/>
</g>
<defs>
<clipPath id="clip0_807_519">
<rect width="165.818" height="40" fill="white"/>
</clipPath>
</defs>
</svg>
