<svg viewBox="0 0 40 40" fill="none" xmlns="http://www.w3.org/2000/svg">
<path d="M23.7716 16.8308H16.6807C16.2379 16.8308 15.8789 17.192 15.8789 17.6377C15.8789 18.0833 16.2379 18.4445 16.6807 18.4445H23.7716C24.2144 18.4445 24.5734 18.0833 24.5734 17.6377C24.5734 17.192 24.2144 16.8308 23.7716 16.8308Z" fill="#2670F6"/>
<path d="M23.7716 21.5579H16.6807C16.2379 21.5579 15.8789 21.9191 15.8789 22.3647C15.8789 22.8103 16.2379 23.1716 16.6807 23.1716H23.7716C24.2144 23.1716 24.5734 22.8103 24.5734 22.3647C24.5734 21.9191 24.2144 21.5579 23.7716 21.5579Z" fill="#2670F6"/>
<path d="M26.0104 25.8001C25.9845 25.831 25.9562 25.8595 25.9279 25.8856C25.6991 26.0971 24.6592 27.0216 23.94 27.0216H14.913C14.8681 27.0216 14.821 27.024 14.7762 27.0311C14.3918 27.0763 12.3473 27.169 12.3473 24.127V15.8779C12.3473 12.8359 14.3942 12.931 14.7762 12.9737C14.821 12.9785 14.8658 12.9833 14.913 12.9833H23.94C24.6616 12.9833 25.6991 13.9077 25.9279 14.1193C25.9585 14.1478 25.9845 14.1739 26.0104 14.2048L29.5783 18.2497C29.866 18.5753 30.2999 18.7227 30.7244 18.6371L38.7161 17.0305C39.2845 16.9165 39.6924 16.4126 39.6924 15.8304V14.7585C39.6924 12.8145 38.926 10.9489 37.5606 9.57288L30.1961 2.15086C28.8308 0.774826 26.982 0.00244141 25.0506 0.00244141H14.637C12.7081 0.00244141 10.8569 0.774826 9.49156 2.15086L2.12705 9.57288C0.7664 10.9442 0 12.8074 0 14.7538V25.2487C0 27.1927 0.766399 29.0584 2.13177 30.4344L9.49628 37.8564C10.8616 39.2324 12.7104 40.0048 14.6418 40.0048H25.0554C26.9843 40.0048 28.8355 39.2324 30.2009 37.8564L37.5654 30.4344C38.9307 29.0584 39.6971 27.1951 39.6971 25.2487V24.3052C39.6971 23.7277 39.2962 23.2286 38.7374 23.1074L30.7385 21.3797C30.3117 21.287 29.866 21.4343 29.5759 21.7623L26.0175 25.7977L26.0104 25.8001Z" fill="#2670F6"/>
</svg>