<svg width="20" height="20" viewBox="0 0 20 20" fill="none" xmlns="http://www.w3.org/2000/svg">
<path d="M10 13.75C12.0711 13.75 13.75 12.0711 13.75 10C13.75 7.92893 12.0711 6.25 10 6.25C7.92893 6.25 6.25 7.92893 6.25 10C6.25 12.0711 7.92893 13.75 10 13.75Z" stroke="#727272" stroke-width="1.5" stroke-linecap="round" stroke-linejoin="round"/>
<path d="M14.3485 5.08488C14.5486 5.26209 14.7379 5.4513 14.9151 5.65145L17.0496 5.95626C17.3958 6.55903 17.6627 7.20396 17.8437 7.87507L16.5504 9.59943C16.5504 9.59943 16.5666 10.1338 16.5504 10.4006L17.8442 12.1255C17.6628 12.7965 17.3955 13.4412 17.0489 14.0438L14.9151 14.3485C14.9151 14.3485 14.5487 14.7379 14.3486 14.9151L14.0438 17.0496C13.441 17.3958 12.7961 17.6627 12.125 17.8437L10.4007 16.5504C10.1339 16.5666 9.86632 16.5666 9.59948 16.5504L7.87459 17.8442C7.2036 17.6628 6.55884 17.3955 5.95631 17.0489L5.65156 14.9152C5.45141 14.738 5.2622 14.5488 5.08498 14.3486L2.95043 14.0438C2.60427 13.441 2.33738 12.7961 2.15638 12.125L3.4497 10.4006C3.4497 10.4006 3.43343 9.86631 3.44965 9.59949L2.15582 7.8746C2.33728 7.20361 2.6046 6.55885 2.95116 5.95631L5.08487 5.65157C5.26208 5.45141 5.45129 5.26221 5.65144 5.08499L5.95625 2.95043C6.55902 2.60428 7.20396 2.33739 7.87507 2.15639L9.59932 3.44966C9.86616 3.43344 10.1337 3.43344 10.4006 3.44966L12.1255 2.15583C12.7965 2.33728 13.4412 2.60461 14.0437 2.95117L14.3485 5.08488Z" stroke="#727272" stroke-width="1.5" stroke-linecap="round" stroke-linejoin="round"/>
</svg>
