<svg width="20" height="20" viewBox="0 0 20 20" fill="none" xmlns="http://www.w3.org/2000/svg">
<g clip-path="url(#clip0_758_190)">
<path d="M13.7169 10.2075C14.5119 9.32188 15 8.15562 15 6.875C15 4.11813 12.7569 1.875 10 1.875C7.24312 1.875 5 4.11813 5 6.875C5 9.63188 7.24312 11.875 10 11.875C10.9719 11.875 11.8769 11.5919 12.6456 11.11C15.3644 12.1344 17.2362 14.6225 17.4744 17.5H2.52625C2.68812 15.5631 3.59687 13.7569 5.075 12.4681C5.33562 12.2413 5.3625 11.8469 5.13562 11.5863C4.90937 11.3263 4.51438 11.2987 4.25375 11.5256C2.34438 13.1894 1.25 15.5944 1.25 18.125C1.25 18.4706 1.53 18.75 1.875 18.75H18.125C18.4706 18.75 18.75 18.4706 18.75 18.125C18.75 14.6962 16.7625 11.6344 13.7169 10.2075ZM6.25 6.875C6.25 4.80687 7.93188 3.125 10 3.125C12.0681 3.125 13.75 4.80687 13.75 6.875C13.75 8.94312 12.0681 10.625 10 10.625C7.93188 10.625 6.25 8.94312 6.25 6.875Z" fill="#727272"/>
</g>
<defs>
<clipPath id="clip0_758_190">
<rect width="20" height="20" fill="white"/>
</clipPath>
</defs>
</svg>
