<svg width="20" height="20" viewBox="0 0 20 20" fill="none" xmlns="http://www.w3.org/2000/svg">
<g clip-path="url(#clip0_758_244)">
<path d="M6.58484 4.50903H5.64734V9.19653H6.58484V4.50903Z" fill="#727272"/>
<path d="M7.99109 8.72778C7.99109 9.22506 7.79354 9.70198 7.44191 10.0536C7.09028 10.4052 6.61337 10.6028 6.11609 10.6028C5.61881 10.6028 5.14189 10.4052 4.79026 10.0536C4.43863 9.70198 4.24109 9.22506 4.24109 8.72778V4.50903H3.30359V8.72778C3.30426 9.39194 3.53995 10.0344 3.96893 10.5415C4.3979 11.0485 4.99247 11.3874 5.64734 11.4981V17.634H6.58484V11.4981C7.23971 11.3874 7.83428 11.0485 8.26325 10.5415C8.69222 10.0344 8.92792 9.39194 8.92859 8.72778V4.50903H7.99109V8.72778Z" fill="#727272"/>
<path d="M11.7411 4.50912H11.2723V17.6341H12.2098V12.9466H13.6161C13.8647 12.9466 14.1032 12.8478 14.279 12.672C14.4548 12.4962 14.5536 12.2578 14.5536 12.0091V7.32162C14.5681 6.94839 14.5053 6.5762 14.369 6.22841C14.2328 5.88062 14.0262 5.56475 13.7621 5.30064C13.498 5.03653 13.1821 4.82988 12.8343 4.69366C12.4865 4.55745 12.1143 4.49462 11.7411 4.50912ZM13.6161 12.0091H12.2098V5.48881C13.5598 5.75131 13.6161 7.14818 13.6161 7.32162V12.0091Z" fill="#727272"/>
</g>
<defs>
<clipPath id="clip0_758_244">
<rect width="15" height="15" fill="white" transform="translate(1.42859 3.57153)"/>
</clipPath>
</defs>
</svg>
