<svg width="20" height="20" viewBox="0 0 20 20" fill="none" xmlns="http://www.w3.org/2000/svg">
<path d="M6.99864 9.36293C7.33712 9.29526 7.55664 8.96601 7.48895 8.62751C7.42126 8.28906 7.092 8.06954 6.75352 8.13724C6.00069 8.28779 5.43227 8.81359 5.12976 9.51951C4.8304 10.2181 4.78597 11.0913 5.01961 12.0266C5.10326 12.3614 5.44256 12.5651 5.77745 12.4814C6.11234 12.3978 6.316 12.0585 6.23234 11.7236C6.04961 10.9922 6.10936 10.4071 6.27871 10.0119C6.44488 9.62409 6.7097 9.42076 6.99864 9.36293ZM4.56036 2.85003C4.49211 4.0051 4.88565 5.18467 5.74134 6.08539C4.17674 6.53507 2.93244 7.86653 2.69094 9.59868C2.41726 11.5616 2.82071 13.5592 3.83474 15.262L4.12726 15.7532C4.1381 15.7714 4.14985 15.7891 4.16248 15.8061L5.34245 17.395C6.40616 18.8273 8.50191 18.9607 9.7385 17.6746C9.88166 17.5257 10.1199 17.5257 10.2631 17.6746C11.4997 18.9607 13.5954 18.8273 14.6592 17.395L15.8391 15.8061C15.8517 15.7891 15.8635 15.7714 15.8743 15.7532L16.1668 15.262C17.1809 13.5592 17.5843 11.5616 17.3107 9.59868C16.9701 7.15588 14.6351 5.51 12.2199 6.01039L10.6347 6.3388L10.6322 6.33934C10.6575 5.68947 10.7589 4.9886 10.9583 4.39045C11.1994 3.66715 11.5351 3.23234 11.9078 3.07703C12.2265 2.94426 12.3772 2.57834 12.2444 2.25972C12.1116 1.94109 11.7457 1.79042 11.4271 1.92318C10.5498 2.28869 10.0522 3.15596 9.77241 3.99517C9.75941 4.03436 9.74666 4.07379 9.73433 4.11346C9.5345 3.72643 9.27241 3.3632 8.948 3.0388C8.03755 2.12834 6.82129 1.70856 5.63111 1.77909C5.05354 1.81333 4.59449 2.27245 4.56036 2.85003ZM5.80392 3.02263C6.6204 3.00033 7.44191 3.30046 8.06413 3.92269C8.68625 4.54479 8.98633 5.36607 8.96425 6.18238C8.81308 6.1865 8.66175 6.17959 8.51158 6.16162L7.99748 6.0551C7.52391 5.91389 7.07796 5.65628 6.704 5.28231C6.0819 4.66022 5.78176 3.83894 5.80392 3.02263ZM7.52807 7.23439L7.69671 7.26934C7.89671 7.32599 8.09996 7.36798 8.30474 7.39531L9.11316 7.56281C9.69875 7.68412 10.3029 7.68412 10.8884 7.56281L12.4735 7.23439C14.181 6.88063 15.8318 8.04424 16.0726 9.77126C16.3071 11.4527 15.9615 13.1638 15.0928 14.6224L14.8166 15.0863L13.6556 16.6498C13.0527 17.4615 11.8649 17.5371 11.1641 16.8082C10.5292 16.1478 9.47241 16.1478 8.8375 16.8082C8.13663 17.5371 6.94886 17.4615 6.34599 16.6498L5.18498 15.0863L4.90874 14.6224C4.04012 13.1638 3.69453 11.4527 3.92896 9.77126C4.16976 8.04424 5.82059 6.88062 7.52807 7.23439Z" fill="#727272"/>
</svg>
