<svg width="19" height="20" viewBox="0 0 19 20" fill="none" xmlns="http://www.w3.org/2000/svg">
<g clip-path="url(#clip0_758_318)">
<path d="M3.5625 10C5.32754 10 6.07549 8.66347 6.73592 7.4841C7.4065 6.28556 7.98594 5.25 9.5 5.25C11.0141 5.25 11.5935 6.28556 12.2641 7.4841C12.9245 8.66347 13.6725 10 15.4375 10H17.8125V8.8125H15.4375C14.4205 8.8125 13.963 8.08771 13.3005 6.90395C12.592 5.63849 11.7106 4.0625 9.5 4.0625C7.28941 4.0625 6.40805 5.63849 5.69947 6.90395C5.03702 8.08771 4.57953 8.8125 3.5625 8.8125H2.375V1.6875H1.1875V17.125C1.1875 17.4399 1.31261 17.742 1.53531 17.9647C1.75801 18.1874 2.06006 18.3125 2.375 18.3125H17.8125V17.125H16.625V13.5625H15.4375V17.125H13.062L13.0625 12.375H11.875V17.125H9.5V10H8.3125V17.125H5.93703L5.9375 12.375H4.75V17.125H2.375V10H3.5625Z" fill="#727272"/>
</g>
<defs>
<clipPath id="clip0_758_318">
<rect width="19" height="19" fill="white" transform="translate(0 0.5)"/>
</clipPath>
</defs>
</svg>
